<svg xmlns="http://www.w3.org/2000/svg" xmlns:xlink="http://www.w3.org/1999/xlink" contentStyleType="text/css" data-diagram-type="CLASS" height="780.2083px" preserveAspectRatio="none" style="width:585px;height:780px;" version="1.1" viewBox="0 0 585 780" width="585.4167px" zoomAndPan="magnify"><title>**Lob- &amp; Beschwerdesystem - ERD**</title><defs><linearGradient id="g1f2shvga9gy630" x1="50%" x2="50%" y1="0%" y2="100%"><stop offset="0%" stop-color="#EDF0F2"/><stop offset="100%" stop-color="#E9ECEF"/></linearGradient><linearGradient id="g1f2shvga9gy631" x1="50%" x2="50%" y1="0%" y2="100%"><stop offset="0%" stop-color="#59B6EC"/><stop offset="100%" stop-color="#2FA4E7"/></linearGradient><linearGradient id="g1f2shvga9gy632" x1="50%" x2="50%" y1="0%" y2="100%"><stop offset="0%" stop-color="#2FA4E7"/><stop offset="100%" stop-color="#2683B9"/></linearGradient></defs><g><g class="title" data-source-line="23"><rect fill="url(#g1f2shvga9gy630)" height="47.168" rx="4.1667" ry="4.1667" style="stroke:#BABDBF;stroke-width:1.0417;" width="403.9185" x="86.0895" y="20.8333"/><text fill="#2FA4E7" font-family="'Verdana'" font-size="20.8333" font-weight="bold" lengthAdjust="spacing" textLength="381.0018" x="97.5478" y="51.6296">Lob- &amp; Beschwerdesystem - ERD</text></g><!--class Benutzer--><g class="entity" data-entity="Benutzer" data-source-line="25" data-uid="ent0002" id="entity_Benutzer"><rect fill="url(#g1f2shvga9gy631)" height="145.8577" rx="4.1667" ry="4.1667" style="stroke:#2FA4E7;stroke-width:1.0417;" width="139.5198" x="56.5521" y="86.7513"/><rect fill="url(#g1f2shvga9gy632)" height="34.1715" rx="4.1667" ry="4.1667" style="stroke:url(#g1f2shvga9gy632);stroke-width:1.0417;" width="139.5198" x="56.5521" y="86.7513"/><rect fill="url(#g1f2shvga9gy632)" height="4.1667" style="stroke:url(#g1f2shvga9gy632);stroke-width:1.0417;" width="139.5198" x="56.5521" y="116.7562"/><rect fill="none" height="145.8577" rx="4.1667" ry="4.1667" style="stroke:#2FA4E7;stroke-width:1.0417;" width="139.5198" x="56.5521" y="86.7513"/><text fill="#F8F9FA" font-family="'Verdana'" font-size="11.4583" lengthAdjust="spacing" textLength="51.7024" x="100.4608" y="107.8039">Benutzer</text><line style="stroke:#2FA4E7;stroke-width:1.0417;" x1="57.5938" x2="195.0302" y1="120.9229" y2="120.9229"/><ellipse cx="68.0104" cy="138.5295" fill="none" rx="3.125" ry="3.125" style="stroke:#2683B9;stroke-width:1.0417;"/><text fill="#F8F9FA" font-family="'Verdana'" font-size="11.4583" lengthAdjust="spacing" textLength="70.3725" x="81.5521" y="140.9337">ID : int &#171;PK&#187;</text><line style="stroke:#2FA4E7;stroke-width:1.0417;" x1="57.5938" x2="195.0302" y1="153.0111" y2="153.0111"/><text fill="#F8F9FA" font-family="'Verdana'" font-size="11.4583" lengthAdjust="spacing" textLength="107.0079" x="68.0104" y="173.022">Vorname : varchar</text><text fill="#F8F9FA" font-family="'Verdana'" font-size="11.4583" lengthAdjust="spacing" textLength="116.6031" x="68.0104" y="196.7768">Nachname : varchar</text><text fill="#F8F9FA" font-family="'Verdana'" font-size="11.4583" lengthAdjust="spacing" textLength="83.3415" x="68.0104" y="220.5317">Rolle : varchar</text></g><!--class Feedback--><g class="entity" data-entity="Feedback" data-source-line="33" data-uid="ent0003" id="entity_Feedback"><rect fill="url(#g1f2shvga9gy631)" height="264.6322" rx="4.1667" ry="4.1667" style="stroke:#2FA4E7;stroke-width:1.0417;" width="162.6994" x="227.2604" y="295.1055"/><rect fill="url(#g1f2shvga9gy632)" height="34.1715" rx="4.1667" ry="4.1667" style="stroke:url(#g1f2shvga9gy632);stroke-width:1.0417;" width="162.6994" x="227.2604" y="295.1055"/><rect fill="url(#g1f2shvga9gy632)" height="4.1667" style="stroke:url(#g1f2shvga9gy632);stroke-width:1.0417;" width="162.6994" x="227.2604" y="325.1104"/><rect fill="none" height="264.6322" rx="4.1667" ry="4.1667" style="stroke:#2FA4E7;stroke-width:1.0417;" width="162.6994" x="227.2604" y="295.1055"/><text fill="#F8F9FA" font-family="'Verdana'" font-size="11.4583" lengthAdjust="spacing" textLength="55.1936" x="281.0133" y="316.158">Feedback</text><line style="stroke:#2FA4E7;stroke-width:1.0417;" x1="228.3021" x2="388.9181" y1="329.277" y2="329.277"/><ellipse cx="238.7188" cy="346.8836" fill="none" rx="3.125" ry="3.125" style="stroke:#2683B9;stroke-width:1.0417;"/><text fill="#F8F9FA" font-family="'Verdana'" font-size="11.4583" lengthAdjust="spacing" textLength="70.3725" x="252.2604" y="349.2879">ID : int &#171;PK&#187;</text><line style="stroke:#2FA4E7;stroke-width:1.0417;" x1="228.3021" x2="388.9181" y1="361.3652" y2="361.3652"/><text fill="#F8F9FA" font-family="'Verdana'" font-size="11.4583" lengthAdjust="spacing" textLength="94.1844" x="238.7188" y="381.3761">Betreff : varchar</text><text fill="#F8F9FA" font-family="'Verdana'" font-size="11.4583" lengthAdjust="spacing" textLength="112.4181" x="238.7188" y="405.131">Beschreibung : text</text><text fill="#F8F9FA" font-family="'Verdana'" font-size="11.4583" lengthAdjust="spacing" textLength="76.0066" x="238.7188" y="428.8859">Typ : varchar</text><text fill="#F8F9FA" font-family="'Verdana'" font-size="11.4583" lengthAdjust="spacing" textLength="106.5659" x="238.7188" y="452.6408">StatusID : int &#171;FK&#187;</text><text fill="#F8F9FA" font-family="'Verdana'" font-size="11.4583" lengthAdjust="spacing" textLength="136.6104" x="238.7188" y="476.3957">Created_At : timestamp</text><text fill="#F8F9FA" font-family="'Verdana'" font-size="11.4583" lengthAdjust="spacing" textLength="139.7827" x="238.7188" y="500.1505">Updated_At : timestamp</text><text fill="#F8F9FA" font-family="'Verdana'" font-size="11.4583" lengthAdjust="spacing" textLength="101.8997" x="238.7188" y="523.9054">User_ID : int &#171;FK&#187;</text><text fill="#F8F9FA" font-family="'Verdana'" font-size="11.4583" lengthAdjust="spacing" textLength="115.2771" x="238.7188" y="547.6603">Thema_ID : int &#171;FK&#187;</text></g><!--class Thema--><g class="entity" data-entity="Thema" data-source-line="46" data-uid="ent0004" id="entity_Thema"><rect fill="url(#g1f2shvga9gy631)" height="98.348" rx="4.1667" ry="4.1667" style="stroke:#2FA4E7;stroke-width:1.0417;" width="151.6495" x="232.7813" y="110.5013"/><rect fill="url(#g1f2shvga9gy632)" height="34.1715" rx="4.1667" ry="4.1667" style="stroke:url(#g1f2shvga9gy632);stroke-width:1.0417;" width="151.6495" x="232.7813" y="110.5013"/><rect fill="url(#g1f2shvga9gy632)" height="4.1667" style="stroke:url(#g1f2shvga9gy632);stroke-width:1.0417;" width="151.6495" x="232.7813" y="140.5062"/><rect fill="none" height="98.348" rx="4.1667" ry="4.1667" style="stroke:#2FA4E7;stroke-width:1.0417;" width="151.6495" x="232.7813" y="110.5013"/><text fill="#F8F9FA" font-family="'Verdana'" font-size="11.4583" lengthAdjust="spacing" textLength="39.4943" x="288.8588" y="131.5539">Thema</text><line style="stroke:#2FA4E7;stroke-width:1.0417;" x1="233.8229" x2="383.3891" y1="144.6729" y2="144.6729"/><ellipse cx="244.2396" cy="162.2795" fill="none" rx="3.125" ry="3.125" style="stroke:#2683B9;stroke-width:1.0417;"/><text fill="#F8F9FA" font-family="'Verdana'" font-size="11.4583" lengthAdjust="spacing" textLength="70.3725" x="257.7813" y="164.6837">ID : int &#171;PK&#187;</text><line style="stroke:#2FA4E7;stroke-width:1.0417;" x1="233.8229" x2="383.3891" y1="176.7611" y2="176.7611"/><text fill="#F8F9FA" font-family="'Verdana'" font-size="11.4583" lengthAdjust="spacing" textLength="128.7328" x="244.2396" y="196.772">Bezeichnung : varchar</text></g><!--class Kategorie--><g class="entity" data-entity="Kategorie" data-source-line="52" data-uid="ent0005" id="entity_Kategorie"><rect fill="url(#g1f2shvga9gy631)" height="98.348" rx="4.1667" ry="4.1667" style="stroke:#2FA4E7;stroke-width:1.0417;" width="151.6495" x="37.9896" y="378.2513"/><rect fill="url(#g1f2shvga9gy632)" height="34.1715" rx="4.1667" ry="4.1667" style="stroke:url(#g1f2shvga9gy632);stroke-width:1.0417;" width="151.6495" x="37.9896" y="378.2513"/><rect fill="url(#g1f2shvga9gy632)" height="4.1667" style="stroke:url(#g1f2shvga9gy632);stroke-width:1.0417;" width="151.6495" x="37.9896" y="408.2562"/><rect fill="none" height="98.348" rx="4.1667" ry="4.1667" style="stroke:#2FA4E7;stroke-width:1.0417;" width="151.6495" x="37.9896" y="378.2513"/><text fill="#F8F9FA" font-family="'Verdana'" font-size="11.4583" lengthAdjust="spacing" textLength="55.3055" x="86.1616" y="399.3039">Kategorie</text><line style="stroke:#2FA4E7;stroke-width:1.0417;" x1="39.0313" x2="188.5974" y1="412.4229" y2="412.4229"/><ellipse cx="49.4479" cy="430.0295" fill="none" rx="3.125" ry="3.125" style="stroke:#2683B9;stroke-width:1.0417;"/><text fill="#F8F9FA" font-family="'Verdana'" font-size="11.4583" lengthAdjust="spacing" textLength="70.3725" x="62.9896" y="432.4337">ID : int &#171;PK&#187;</text><line style="stroke:#2FA4E7;stroke-width:1.0417;" x1="39.0313" x2="188.5974" y1="444.5111" y2="444.5111"/><text fill="#F8F9FA" font-family="'Verdana'" font-size="11.4583" lengthAdjust="spacing" textLength="128.7328" x="49.4479" y="464.522">Bezeichnung : varchar</text></g><!--class FeedbackKategorie--><g class="entity" data-entity="FeedbackKategorie" data-source-line="58" data-uid="ent0006" id="entity_FeedbackKategorie"><rect fill="url(#g1f2shvga9gy631)" height="98.348" rx="4.1667" ry="4.1667" style="stroke:#2FA4E7;stroke-width:1.0417;" width="161.8174" x="32.9063" y="645.9909"/><rect fill="url(#g1f2shvga9gy632)" height="34.1715" rx="4.1667" ry="4.1667" style="stroke:url(#g1f2shvga9gy632);stroke-width:1.0417;" width="161.8174" x="32.9063" y="645.9909"/><rect fill="url(#g1f2shvga9gy632)" height="4.1667" style="stroke:url(#g1f2shvga9gy632);stroke-width:1.0417;" width="161.8174" x="32.9063" y="675.9958"/><rect fill="none" height="98.348" rx="4.1667" ry="4.1667" style="stroke:#2FA4E7;stroke-width:1.0417;" width="161.8174" x="32.9063" y="645.9909"/><text fill="#F8F9FA" font-family="'Verdana'" font-size="11.4583" lengthAdjust="spacing" textLength="110.4991" x="58.5654" y="667.0434">FeedbackKategorie</text><line style="stroke:#2FA4E7;stroke-width:1.0417;" x1="33.9479" x2="193.682" y1="680.1624" y2="680.1624"/><ellipse cx="44.3646" cy="697.769" fill="none" rx="3.125" ry="3.125" style="stroke:#2683B9;stroke-width:1.0417;"/><text fill="#F8F9FA" font-family="'Verdana'" font-size="11.4583" lengthAdjust="spacing" textLength="125.2472" x="57.9063" y="700.1733">FeedbackID : int &#171;FK&#187;</text><ellipse cx="44.3646" cy="721.5239" fill="none" rx="3.125" ry="3.125" style="stroke:#2683B9;stroke-width:1.0417;"/><text fill="#F8F9FA" font-family="'Verdana'" font-size="11.4583" lengthAdjust="spacing" textLength="125.3591" x="57.9063" y="723.9282">KategorieID : int &#171;FK&#187;</text><line style="stroke:#2FA4E7;stroke-width:1.0417;" x1="33.9479" x2="193.682" y1="736.0055" y2="736.0055"/></g><!--class Bild--><g class="entity" data-entity="Bild" data-source-line="63" data-uid="ent0007" id="entity_Bild"><rect fill="url(#g1f2shvga9gy631)" height="145.8577" rx="4.1667" ry="4.1667" style="stroke:#2FA4E7;stroke-width:1.0417;" width="156.3268" x="231.4896" y="622.2409"/><rect fill="url(#g1f2shvga9gy632)" height="34.1715" rx="4.1667" ry="4.1667" style="stroke:url(#g1f2shvga9gy632);stroke-width:1.0417;" width="156.3268" x="231.4896" y="622.2409"/><rect fill="url(#g1f2shvga9gy632)" height="4.1667" style="stroke:url(#g1f2shvga9gy632);stroke-width:1.0417;" width="156.3268" x="231.4896" y="652.2458"/><rect fill="none" height="145.8577" rx="4.1667" ry="4.1667" style="stroke:#2FA4E7;stroke-width:1.0417;" width="156.3268" x="231.4896" y="622.2409"/><text fill="#F8F9FA" font-family="'Verdana'" font-size="11.4583" lengthAdjust="spacing" textLength="21.5012" x="298.9024" y="643.2934">Bild</text><line style="stroke:#2FA4E7;stroke-width:1.0417;" x1="232.5313" x2="386.7747" y1="656.4124" y2="656.4124"/><ellipse cx="242.9479" cy="674.019" fill="none" rx="3.125" ry="3.125" style="stroke:#2683B9;stroke-width:1.0417;"/><text fill="#F8F9FA" font-family="'Verdana'" font-size="11.4583" lengthAdjust="spacing" textLength="70.3725" x="256.4896" y="676.4233">ID : int &#171;PK&#187;</text><line style="stroke:#2FA4E7;stroke-width:1.0417;" x1="232.5313" x2="386.7747" y1="688.5007" y2="688.5007"/><text fill="#F8F9FA" font-family="'Verdana'" font-size="11.4583" lengthAdjust="spacing" textLength="102.0564" x="242.9479" y="708.5115">Bildpfad : varchar</text><text fill="#F8F9FA" font-family="'Verdana'" font-size="11.4583" lengthAdjust="spacing" textLength="133.4101" x="242.9479" y="732.2664">Beschreibung : varchar</text><text fill="#F8F9FA" font-family="'Verdana'" font-size="11.4583" lengthAdjust="spacing" textLength="125.2472" x="242.9479" y="756.0213">FeedbackID : int &#171;FK&#187;</text></g><!--class Status--><g class="entity" data-entity="Status" data-source-line="71" data-uid="ent0008" id="entity_Status"><rect fill="url(#g1f2shvga9gy631)" height="98.348" rx="4.1667" ry="4.1667" style="stroke:#2FA4E7;stroke-width:1.0417;" width="151.6495" x="421.3229" y="110.5013"/><rect fill="url(#g1f2shvga9gy632)" height="34.1715" rx="4.1667" ry="4.1667" style="stroke:url(#g1f2shvga9gy632);stroke-width:1.0417;" width="151.6495" x="421.3229" y="110.5013"/><rect fill="url(#g1f2shvga9gy632)" height="4.1667" style="stroke:url(#g1f2shvga9gy632);stroke-width:1.0417;" width="151.6495" x="421.3229" y="140.5062"/><rect fill="none" height="98.348" rx="4.1667" ry="4.1667" style="stroke:#2FA4E7;stroke-width:1.0417;" width="151.6495" x="421.3229" y="110.5013"/><text fill="#F8F9FA" font-family="'Verdana'" font-size="11.4583" lengthAdjust="spacing" textLength="36.5122" x="478.8915" y="131.5539">Status</text><line style="stroke:#2FA4E7;stroke-width:1.0417;" x1="422.3646" x2="571.9307" y1="144.6729" y2="144.6729"/><ellipse cx="432.7813" cy="162.2795" fill="none" rx="3.125" ry="3.125" style="stroke:#2683B9;stroke-width:1.0417;"/><text fill="#F8F9FA" font-family="'Verdana'" font-size="11.4583" lengthAdjust="spacing" textLength="70.3725" x="446.3229" y="164.6837">ID : int &#171;PK&#187;</text><line style="stroke:#2FA4E7;stroke-width:1.0417;" x1="422.3646" x2="571.9307" y1="176.7611" y2="176.7611"/><text fill="#F8F9FA" font-family="'Verdana'" font-size="11.4583" lengthAdjust="spacing" textLength="128.7328" x="432.7813" y="196.772">Bezeichnung : varchar</text></g><!--link Benutzer to Feedback--><g class="link" data-entity-1="Benutzer" data-entity-2="Feedback" data-source-line="78" data-uid="lnk9" id="link_Benutzer_Feedback"><path codeLine="78" d="M204.8958,221.2201 C246.6979,221.2201 283.3333,221.2201 283.3333,221.2201 C283.3333,221.2201 283.3333,236.0117 283.3333,276.043" fill="none" id="Benutzer-Feedback" style="stroke:#6366F1;stroke-width:3.125;"/><line style="stroke:#6366F1;stroke-width:3.125;" x1="200.7292" x2="200.7292" y1="225.3867" y2="217.0534"/><line style="stroke:#6366F1;stroke-width:3.125;" x1="203.8542" x2="203.8542" y1="225.3867" y2="217.0534"/><line style="stroke:#6366F1;stroke-width:3.125;" x1="204.8958" x2="196.5625" y1="221.2201" y2="221.2201"/><line style="stroke:#6366F1;stroke-width:3.125;" x1="283.3333" x2="289.5833" y1="286.4596" y2="294.793"/><line style="stroke:#6366F1;stroke-width:3.125;" x1="283.3333" x2="277.0833" y1="286.4596" y2="294.793"/><line style="stroke:#6366F1;stroke-width:3.125;" x1="283.3333" x2="283.3333" y1="286.4596" y2="294.793"/><ellipse cx="283.3333" cy="280.2096" fill="none" rx="4.1667" ry="4.1667" style="stroke:#6366F1;stroke-width:3.125;"/><text fill="#334155" font-family="'Verdana'" font-size="12.5" lengthAdjust="spacing" textLength="50.2136" x="220.4792" y="239.0728">verfasst</text></g><!--link Thema to Feedback--><g class="link" data-entity-1="Thema" data-entity-2="Feedback" data-source-line="79" data-uid="lnk10" id="link_Thema_Feedback"><path codeLine="79" d="M333.8854,217.4284 C333.8854,241.8346 333.8854,245.4805 333.8854,276.1159" fill="none" id="Thema-Feedback" style="stroke:#6366F1;stroke-width:3.125;"/><line style="stroke:#6366F1;stroke-width:3.125;" x1="329.7188" x2="338.0521" y1="213.2617" y2="213.2617"/><line style="stroke:#6366F1;stroke-width:3.125;" x1="329.7188" x2="338.0521" y1="216.3867" y2="216.3867"/><line style="stroke:#6366F1;stroke-width:3.125;" x1="333.8854" x2="333.8854" y1="217.4284" y2="209.0951"/><line style="stroke:#6366F1;stroke-width:3.125;" x1="333.8854" x2="340.1354" y1="286.5326" y2="294.8659"/><line style="stroke:#6366F1;stroke-width:3.125;" x1="333.8854" x2="327.6354" y1="286.5326" y2="294.8659"/><line style="stroke:#6366F1;stroke-width:3.125;" x1="333.8854" x2="333.8854" y1="286.5326" y2="294.8659"/><ellipse cx="333.8854" cy="280.2826" fill="none" rx="4.1667" ry="4.1667" style="stroke:#6366F1;stroke-width:3.125;"/><text fill="#334155" font-family="'Verdana'" font-size="12.5" lengthAdjust="spacing" textLength="66.0706" x="262.0104" y="269.8333">beschreibt</text></g><!--link Feedback to Bild--><g class="link" data-entity-1="Feedback" data-entity-2="Bild" data-source-line="80" data-uid="lnk11" id="link_Feedback_Bild"><path codeLine="80" d="M309.6458,568.4492 C309.6458,589.7513 309.6458,584.0117 309.6458,603.2409" fill="none" id="Feedback-Bild" style="stroke:#6366F1;stroke-width:3.125;"/><line style="stroke:#6366F1;stroke-width:3.125;" x1="305.4792" x2="313.8125" y1="564.2826" y2="564.2826"/><line style="stroke:#6366F1;stroke-width:3.125;" x1="305.4792" x2="313.8125" y1="567.4076" y2="567.4076"/><line style="stroke:#6366F1;stroke-width:3.125;" x1="309.6458" x2="309.6458" y1="568.4492" y2="560.1159"/><line style="stroke:#6366F1;stroke-width:3.125;" x1="309.6458" x2="315.8958" y1="613.6576" y2="621.9909"/><line style="stroke:#6366F1;stroke-width:3.125;" x1="309.6458" x2="303.3958" y1="613.6576" y2="621.9909"/><line style="stroke:#6366F1;stroke-width:3.125;" x1="309.6458" x2="309.6458" y1="613.6576" y2="621.9909"/><ellipse cx="309.6458" cy="607.4076" fill="none" rx="4.1667" ry="4.1667" style="stroke:#6366F1;stroke-width:3.125;"/><text fill="#334155" font-family="'Verdana'" font-size="12.5" lengthAdjust="spacing" textLength="30.5603" x="273.1875" y="582.8645">zeigt</text></g><!--link Feedback to FeedbackKategorie--><g class="link" data-entity-1="Feedback" data-entity-2="FeedbackKategorie" data-source-line="81" data-uid="lnk12" id="link_Feedback_FeedbackKategorie"><path codeLine="81" d="M218.5,518.0951 C175.1458,518.0951 139.0938,518.0951 139.0938,518.0951 C139.0938,518.0951 139.0938,574.6992 139.0938,627.0951" fill="none" id="Feedback-FeedbackKategorie" style="stroke:#6366F1;stroke-width:3.125;"/><line style="stroke:#6366F1;stroke-width:3.125;" x1="222.6667" x2="222.6667" y1="513.9284" y2="522.2617"/><line style="stroke:#6366F1;stroke-width:3.125;" x1="219.5417" x2="219.5417" y1="513.9284" y2="522.2617"/><line style="stroke:#6366F1;stroke-width:3.125;" x1="218.5" x2="226.8333" y1="518.0951" y2="518.0951"/><line style="stroke:#6366F1;stroke-width:3.125;" x1="139.0938" x2="145.3438" y1="637.5117" y2="645.8451"/><line style="stroke:#6366F1;stroke-width:3.125;" x1="139.0938" x2="132.8438" y1="637.5117" y2="645.8451"/><line style="stroke:#6366F1;stroke-width:3.125;" x1="139.0938" x2="139.0938" y1="637.5117" y2="645.8451"/><ellipse cx="139.0938" cy="631.2617" fill="none" rx="4.1667" ry="4.1667" style="stroke:#6366F1;stroke-width:3.125;"/><text fill="#334155" font-family="'Verdana'" font-size="12.5" lengthAdjust="spacing" textLength="59.6924" x="73.4688" y="529.9062">geh&#246;rt zu</text></g><!--link Kategorie to FeedbackKategorie--><g class="link" data-entity-1="Kategorie" data-entity-2="FeedbackKategorie" data-source-line="82" data-uid="lnk13" id="link_Kategorie_FeedbackKategorie"><path codeLine="82" d="M88.5417,485.1784 C88.5417,533.2201 88.5417,578.7201 88.5417,626.8346" fill="none" id="Kategorie-FeedbackKategorie" style="stroke:#6366F1;stroke-width:3.125;"/><line style="stroke:#6366F1;stroke-width:3.125;" x1="84.375" x2="92.7083" y1="481.0117" y2="481.0117"/><line style="stroke:#6366F1;stroke-width:3.125;" x1="84.375" x2="92.7083" y1="484.1367" y2="484.1367"/><line style="stroke:#6366F1;stroke-width:3.125;" x1="88.5417" x2="88.5417" y1="485.1784" y2="476.8451"/><line style="stroke:#6366F1;stroke-width:3.125;" x1="88.5417" x2="94.7917" y1="637.2513" y2="645.5846"/><line style="stroke:#6366F1;stroke-width:3.125;" x1="88.5417" x2="82.2917" y1="637.2513" y2="645.5846"/><line style="stroke:#6366F1;stroke-width:3.125;" x1="88.5417" x2="88.5417" y1="637.2513" y2="645.5846"/><ellipse cx="88.5417" cy="631.0013" fill="none" rx="4.1667" ry="4.1667" style="stroke:#6366F1;stroke-width:3.125;"/><text fill="#334155" font-family="'Verdana'" font-size="12.5" lengthAdjust="spacing" textLength="59.6924" x="22.9167" y="579.0624">geh&#246;rt zu</text></g><!--link Status to Feedback--><g class="link" data-entity-1="Status" data-entity-2="Feedback" data-source-line="83" data-uid="lnk14" id="link_Status_Feedback"><path codeLine="83" d="M497.1458,217.4388 C497.1458,294.8138 497.1458,427.4701 497.1458,427.4701 C497.1458,427.4701 459.9167,427.4701 408.9583,427.4701" fill="none" id="Status-Feedback" style="stroke:#6366F1;stroke-width:3.125;"/><line style="stroke:#6366F1;stroke-width:3.125;" x1="492.9792" x2="501.3125" y1="213.2721" y2="213.2721"/><line style="stroke:#6366F1;stroke-width:3.125;" x1="492.9792" x2="501.3125" y1="216.3971" y2="216.3971"/><line style="stroke:#6366F1;stroke-width:3.125;" x1="497.1458" x2="497.1458" y1="217.4388" y2="209.1055"/><line style="stroke:#6366F1;stroke-width:3.125;" x1="398.5417" x2="390.2083" y1="427.4701" y2="433.7201"/><line style="stroke:#6366F1;stroke-width:3.125;" x1="398.5417" x2="390.2083" y1="427.4701" y2="421.2201"/><line style="stroke:#6366F1;stroke-width:3.125;" x1="398.5417" x2="390.2083" y1="427.4701" y2="427.4701"/><ellipse cx="404.7917" cy="427.4701" fill="none" rx="4.1667" ry="4.1667" style="stroke:#6366F1;stroke-width:3.125;"/><text fill="#334155" font-family="'Verdana'" font-size="12.5" lengthAdjust="spacing" textLength="20.4834" x="471.1042" y="363.5728">hat</text></g><!--SRC=[hLFHRjf047ptLsofr4YM_00kg45Hf98KgKfLLP3sDJhRQ_iKSsUjpw50yblzWVvObxCDBfW8gUK5xynuTtRkV05p8pCeLGHJGG4gvur9SO4G8fKP2kMaCk9AKfYXKpnAbGiI2yYaGhFA4JIPLBS8L4QQ5MmSuDz4X8y9QUv-epDDy3Q-Z4KSLfoc2Ad6_U3381vPVAgLgT4-3YxzO8VEvHgXx-zhiyeG0fr55ffLSqWXGNzeeNag8hsKAW539JelBP-4eH4guGQRatRQUa6abxMsLetyqIZk7vhs_VVzuV30z81xEHmCZtFTBphmu1rCi0ZJ9VBOObKON807dsQthkiuTOQz2QhIh95w80feYjg32vzlOGnI6RYw-dPtVMrHpxD_FpW5mOSuXYT1OIh8ebz5c7R0CvrbRUnbRs2A60LyXjP0KvnZO8A6C8uF9jcD2MLGyecCmU1FO_7xLNwWd1jXog8rODeCk24K1gE7ZsRRGIwmC6AHM-fx7fsa2gI7hdRtVDd54TEAm0hi_lRflENNA3dgQikEME_OPg99eksxg_vBx-QK_fvnXEvcDKnNEExUsoi9JMGMLJUK7yxQWNLvBABNRqUREcMovQAwCTP7zVXFQLwmmjlI4bCcKMrhP_S9FZzxdjxiluWnz9wGOb4KfkTKzwH34ZGBicY7rpgR7MlOJz917vyVQnDCV_yY0-kov-o9Sz-eK-hmcGfsy0S0]--></g></svg>