<?xml version="1.0" encoding="UTF-8"?>
<svg id="Ebene_4" data-name="Ebene 4" xmlns="http://www.w3.org/2000/svg" viewBox="0 0 558.43 539.52">
  <defs>
    <style>
      .cls-1 {
        fill: #eab500;
      }

      .cls-2 {
        fill: #1d1d1b;
      }

      .cls-3 {
        fill: #4eb5e1;
      }

      .cls-4 {
        fill: #ca508e;
      }

      .cls-5 {
        fill: #e30613;
      }

      .cls-6 {
        fill: #afca0b;
      }
    </style>
  </defs>
  <path class="cls-3" d="M326.08,2.9c-2.03-1.82-4.7-2.9-7.57-2.9h-77.73c-2.86,0-5.53,1.08-7.57,2.89h0s-.02.01-.02.01c-1.52,1.36-2.68,3.13-3.3,5.18l-9.96,33.04-63.05,209.62-46.23,153.69c2,1.7,4.58,2.7,7.34,2.7h77.73c2.78,0,5.37-1.01,7.38-2.73,1.38-1.18,2.49-2.69,3.19-4.44l73.34-243.8h0S326.08,2.9,326.08,2.9Z"/>
  <path class="cls-5" d="M557.81,40.01c-1-2.92-3.17-5.4-6.18-6.72l-34.73-15.24-32.63-14.32c-2.37-1.04-4.96-1.2-7.37-.58l-44.41,147.39-30.14,100.19-46.23,153.69c2,1.69,4.58,2.7,7.34,2.7h77.73c2.77,0,5.37-1.01,7.38-2.73h0c1.38-1.19,2.49-2.7,3.19-4.45l84.38-280.52,1.74-5.78,20.06-66.68c.71-2.35.61-4.77-.14-6.95"/>
  <path class="cls-6" d="M123.02,341.23l30.55-101.55L84.12,8.81c-1.31-4.36-6.14-6.58-10.31-4.75L4.52,34.57c-3.5,1.54-5.3,5.45-4.2,9.11l106.1,352.72,16.6-55.17Z"/>
  <polygon class="cls-4" points="394.93 254.44 399.2 240.23 329.96 10.04 292.36 134.11 292.36 134.12 282.68 166.29 352.06 396.96 394.93 254.44"/>
  <path class="cls-1" d="M429.35,140.05L468.99,8.46l-22.69,20.13-34.42,30.54c-3.31,2.94-4.61,7.53-3.34,11.77l20.8,69.15Z"/>
  <path class="cls-2" d="M258.81,450.46h50.71v13.8h-33.48v21.58h30.65v13.8h-30.65v24.59h33.72v13.8h-50.96v-87.55ZM378.03,524.22h-33.33v-73.76h-17.23v87.55h46.49l4.07-13.8ZM433.9,451.85c-6.07-1.96-12.7-2.9-19.79-2.9-15.14,0-30.03,7.15-30.03,26.72,0,28.98,37.66,22.08,37.66,38.76,0,7.9-8.74,11.29-15.26,11.29-5.55,0-11.08-1.44-16.16-3.76l-4.23,14.34c8.05,2.03,12.27,3.22,21.37,3.22,17.35,0,32.25-7.28,32.25-26.47,0-29.35-37.67-22.95-37.67-38.13,0-9.53,7.63-12.17,13.54-12.17,4.89,0,9.78.92,14.35,2.54l3.97-13.44ZM146.21,538.01h22.71l15.55-69.99h.25l15.81,69.99h22.58l22.83-87.55h-17.06l-16.43,69.99h-.25l-15.43-69.99h-23.83l-14.93,69.99h-.25l-16.31-69.99h-18.44l23.2,87.55Z"/>
</svg>